<svg version="1.1" xmlns="http://www.w3.org/2000/svg" xmlns:xlink="http://www.w3.org/1999/xlink" width="200" height="200" viewBox="0,0,200,200"><g transform="translate(-140,-80)"><g data-paper-data="{&quot;isPaintingLayer&quot;:true}" fill-rule="nonzero" stroke="none" stroke-linecap="butt" stroke-linejoin="miter" stroke-miterlimit="10" stroke-dasharray="" stroke-dashoffset="0" style="mix-blend-mode: normal"><path d="M185.75,234.25v-108.5h108.5v108.5z" fill="#ffffff" stroke-width="0"/><path d="M160,80h160c11.0456,0 20,8.9544 20,20v160c0,11.0456 -8.9544,20 -20,20h-160c-11.0456,0 -20,-8.9544 -20,-20v-160c0,-11.0456 8.9544,-20 20,-20zM232.5,172.5h-37.5c-4.142,0 -7.5,3.358 -7.5,7.5c0,4.142 3.358,7.5 7.5,7.5h37.5v37.5c0,4.142 3.358,7.5 7.5,7.5c4.142,0 7.5,-3.358 7.5,-7.5v-37.5h37.5c4.142,0 7.5,-3.358 7.5,-7.5c0,-4.142 -3.358,-7.5 -7.5,-7.5h-37.5v-37.5c0,-4.142 -3.358,-7.5 -7.5,-7.5c-4.142,0 -7.5,3.358 -7.5,7.5z" fill="#8ba3c7" stroke-width="1"/></g></g></svg>