<svg version="1.1" xmlns="http://www.w3.org/2000/svg" xmlns:xlink="http://www.w3.org/1999/xlink" width="199.9543" height="199.95391" viewBox="0,0,199.9543,199.95391"><g transform="translate(-140.02285,-80.02304)"><g data-paper-data="{&quot;isPaintingLayer&quot;:true}" fill-rule="nonzero" stroke="none" stroke-width="1" stroke-linecap="butt" stroke-linejoin="miter" stroke-miterlimit="10" stroke-dasharray="" stroke-dashoffset="0" style="mix-blend-mode: normal"><path d="M239.18965,82.03242v76.06914l-15.42031,5.14414l-52.43516,-51.41055l28.2711,-18.14141z" fill="#ac92eb"/><path d="M241.18965,278.48594v-76.09335l15.41992,-5.13164l52.42929,51.39805l-28.26523,18.14766z" fill="#a0d468"/><path d="M171.73614,249.30703l53.78984,-53.79023l14.53516,7.27383l0.73242,73.42695l-32.81718,-7.16406z" fill="#48cfad"/><path d="M142.69395,180.66562h76.075l5.13203,15.42032l-51.39844,52.43516l-18.1414,-28.26485z" fill="#4fc2e9"/><path d="M171.29239,110.9875l53.79024,53.7961l-7.27383,14.52929l-73.4207,0.73203l7.16406,-32.81719z" fill="#5d9cec"/><path d="M309.04707,110.18399l-53.7961,53.7957l-14.5293,-7.27929l-0.73203,-73.4207l32.81679,7.15742z" fill="#ed5564"/><path d="M334.72246,180.26563l-71.1082,-0.64062l-5.13203,-15.41992l51.39805,-52.42969l18.1418,28.25899z" fill="#fc6e51"/><path d="M309.49043,248.50977l-53.79023,-53.79648l7.27383,-14.52891l73.4207,-0.73867l-7.16992,32.81758z" fill="#ffce54"/><path d="M339.97715,180c0,55.22422 -44.75937,99.97695 -99.97734,99.97695c-55.21172,0 -99.97695,-44.75273 -99.97695,-99.97695c0,-55.21211 44.76485,-99.97695 99.97696,-99.97695c55.21758,0 99.97696,44.76485 99.97734,99.97696zM275.67285,95.55313c-10.01953,-4.23516 -20.60078,-6.61484 -31.50507,-7.10312l-0.00039,66.90351c3.71944,0.62484 7.24803,2.08753 10.31875,4.27735l47.30352,-47.30938c-7.71289,-7.06015 -16.48203,-12.69258 -26.1168,-16.76836zM204.33262,95.55274c-9.63515,4.07617 -18.40391,9.7086 -26.12305,16.76875l47.30977,47.30938c3.0714,-2.1886 6.5997,-3.65116 10.31875,-4.27735v-66.90351c-10.90429,0.48828 -21.48554,2.86797 -31.50547,7.10273zM215.35293,175.83867c0.62607,-3.71916 2.08879,-7.2475 4.27774,-10.31875l-47.30937,-47.31016c-7.06054,7.71953 -12.69258,16.48789 -16.76289,26.12344c-4.24102,10.01953 -6.6207,20.60039 -7.10273,31.50508zM275.67246,264.45352c9.63515,-4.07617 18.40391,-9.70234 26.1168,-16.76875l-47.30313,-47.30976c-3.07081,2.18966 -6.59936,3.65232 -10.31875,4.27734v66.9039c10.90429,-0.48828 21.48555,-2.86797 31.50508,-7.10273zM204.33262,264.45274c10.01953,4.23516 20.60078,6.61485 31.50508,7.10312l0.00039,-66.90351c-3.71912,-0.62594 -7.24747,-2.08852 -10.31875,-4.27734l-47.30976,47.30937c7.71914,7.06641 16.48789,12.69297 26.12305,16.76836zM307.68418,118.20977l-47.30938,47.30977c2.1886,3.0714 3.65116,6.5997 4.27735,10.31875h66.89727c-0.48164,-10.90429 -2.86172,-21.48554 -7.09649,-31.50508c-4.07578,-9.63555 -9.70859,-18.40391 -16.76875,-26.12344zM172.32129,241.79024l47.30977,-47.3039c-2.18887,-3.07115 -3.65158,-6.59935 -4.27774,-10.31836h-66.89726c0.48203,10.90429 2.86172,21.48515 7.10273,31.50468c4.06992,9.6418 9.70196,18.40469 16.7625,26.11758zM324.45293,215.67266c4.23476,-10.01953 6.61485,-20.60039 7.09649,-31.50468h-66.89726c-0.62601,3.71899 -2.08859,7.2472 -4.27735,10.31836l47.30938,47.3039c7.06016,-7.71289 12.69297,-16.47579 16.76875,-26.11758zM256.66504,180c0,-9.18359 -7.47539,-16.65859 -16.66523,-16.65859c-9.18359,0 -16.6586,7.475 -16.6586,16.65859c0,9.18946 7.475,16.66485 16.6586,16.66485c9.18946,0 16.66484,-7.47539 16.66523,-16.66485z" fill="#434a54"/><path d="" fill="#434a54"/><path d="" fill="#434a54"/></g></g></svg>