<svg version="1.1" xmlns="http://www.w3.org/2000/svg" xmlns:xlink="http://www.w3.org/1999/xlink" width="262.06365" height="262.06365" viewBox="0,0,262.06365,262.06365"><defs><linearGradient x1="120.90196" y1="125.44123" x2="359.09802" y2="234.55875" gradientUnits="userSpaceOnUse" id="color-1"><stop offset="0" stop-color="#ffd084"/><stop offset="1" stop-color="#c8ff85"/></linearGradient></defs><g transform="translate(-108.96817,-48.96817)"><g data-paper-data="{&quot;isPaintingLayer&quot;:true}" fill-rule="nonzero" stroke-linejoin="miter" stroke-miterlimit="10" stroke-dasharray="" stroke-dashoffset="0" style="mix-blend-mode: normal"><path d="M120.90196,125.44123c30.13197,-65.77603 107.88077,-94.67124 173.6568,-64.53927c65.77603,30.13197 94.67124,107.88077 64.53927,173.6568c-30.13197,65.77603 -107.88077,94.67124 -173.6568,64.53927c-65.77603,-30.13197 -94.67124,-107.88077 -64.53927,-173.6568z" fill="url(#color-1)" stroke="none" stroke-width="0" stroke-linecap="butt"/><path d="M137.45797,150.61255c3.29926,-4.73385 9.09633,-8.36505 9.09633,-8.36505c0,0 2.78644,-6.82037 6.0999,-8.17189c3.31346,-1.35153 5.93501,2.22926 11.61409,0.94655c5.67908,-1.28274 4.16555,-7.66075 8.16404,-6.68049c6.88886,1.68886 7.73388,-5.20505 13.42261,-6.10952c18.75147,-2.9814 22.73457,-10.21295 27.86999,-11.83494c5.62363,-1.77618 9.45819,4.66186 16.07383,7.18556c6.61563,2.5237 9.25449,-0.04404 15.10386,4.70797c5.84936,4.75202 5.36613,16.37802 14.3903,18.03022c5.73964,1.05086 11.90256,-10.11308 20.41577,-8.28495c7.35328,1.57905 4.76856,6.96466 9.03308,10.99851c6.23897,5.90153 11.15047,3.46461 16.54006,9.58357c3.29115,3.73656 2.06859,11.05691 5.44572,17.37186c1.88596,3.52656 11.93489,4.05905 11.55878,8.79836c-0.67417,8.49523 -0.45833,7.79724 1.13079,12.447c1.5891,4.64977 9.00315,7.17599 7.56253,12.98945c-0.64946,2.62087 -3.43739,5.96912 -3.43739,5.96912l-1.43095,3.54754c0,0 4.24229,6.18273 2.59265,9.83143c-1.3351,2.95296 -5.10824,2.56861 -5.41882,3.50046c-0.51704,1.55142 0.07198,3.6418 -0.389,5.37613c-0.95058,3.57645 -5.25644,3.5038 -11.93443,2.49183c-22.06745,-3.34403 -49.9822,-13.56096 -76.29485,-0.54542c-9.00807,4.45584 -20.90158,37.61677 -39.00401,67.13086c-6.27797,-1.93366 -9.49354,-3.59407 -14.18947,-6.14234c25.33112,-21.74854 39.39906,-45.13941 33.49185,-66.95558c-6.06486,-22.39839 -35.17622,-44.83638 -78.02083,-62.11752c-4.33755,-1.74952 -2.78567,-10.96486 0.5136,-15.69871z" fill="#000000" stroke="#000000" stroke-width="2.5" stroke-linecap="round"/><path d="M161.75624,132.1c0,-0.82843 0.67157,-1.5 1.5,-1.5c0.82843,0 1.5,0.67157 1.5,1.5c0,0.82843 -0.67157,1.5 -1.5,1.5c-0.82843,0 -1.5,-0.67157 -1.5,-1.5z" fill="#ffffff" stroke="none" stroke-width="0.5" stroke-linecap="butt"/><path d="M173.75624,125.6c0,-0.82842 0.67157,-1.5 1.5,-1.5c0.82843,0 1.5,0.67158 1.5,1.5c0,0.82842 -0.67157,1.5 -1.5,1.5c-0.82843,0 -1.5,-0.67158 -1.5,-1.5z" fill="#ffffff" stroke="none" stroke-width="0.5" stroke-linecap="butt"/><path d="M204.64414,112.16918c0.67082,1.34164 -0.67082,2.01246 -0.67082,2.01246l-1.27994,0.63707c-2.84175,1.21789 -5.45933,2.13045 -8.28607,2.74314c-0.27516,0.32893 -0.68868,0.53815 -1.15107,0.53815c-0.11947,0 -0.23568,-0.01397 -0.34709,-0.04036c-0.27515,0.33021 -0.68949,0.54036 -1.15291,0.54036c-0.43658,0 -0.8296,-0.18651 -1.10372,-0.48421c-0.45482,-0.06558 -1.11828,-0.32841 -1.23844,-1.28974c-0.18605,-1.48842 1.30236,-1.67446 1.30236,-1.67446c3.92302,-0.48361 7.12569,-1.51767 10.79517,-3.09031l1.12006,-0.56292c0,0 1.34164,-0.67082 2.01246,0.67082z" fill="#ffffff" stroke="none" stroke-width="0.5" stroke-linecap="butt"/><path d="M295.99379,140.74508c0.32533,0.02874 1.4087,0.22015 1.4087,1.49492c0,1.5 -1.5,1.5 -1.5,1.5l-0.72668,-0.09551c-1.68696,-0.63305 -2.85747,-1.36849 -3.80432,-2.33308c-0.15969,-0.11683 -0.29541,-0.26447 -0.39842,-0.43416c-0.81459,-0.94803 -1.47671,-2.10424 -2.21222,-3.56643c0,0 -0.67082,-1.34164 0.67082,-2.01246c1.34164,-0.67082 2.01246,0.67082 2.01246,0.67082c0.67209,1.35348 1.17979,2.31179 1.86317,3.06065c0.03093,0.03038 0.06055,0.0621 0.08877,0.09506c0.62916,0.65815 1.41242,1.15309 2.59771,1.62019z" fill="#ffffff" stroke="none" stroke-width="0.5" stroke-linecap="butt"/><path d="M319.18874,170.61175c-0.77175,1.28624 -2.05798,0.51449 -2.05798,0.51449l-0.97246,-0.58388c-2.6647,-1.61719 -4.69987,-4.82028 -5.14421,-7.91631c0,0 -0.18605,-1.48842 1.30237,-1.67446c1.48841,-0.18605 1.67447,1.30236 1.67447,1.30236c0.0736,0.75595 0.34916,1.60875 0.75955,2.42938c0.58562,0.20428 1.00578,0.76141 1.00578,1.41667c0,0.05552 -0.00302,0.11033 -0.00889,0.16429c0.56542,0.72242 1.22133,1.32399 1.89936,1.67335l1.02754,0.61613c0,0 1.28624,0.77175 0.5145,2.05799z" fill="#ffffff" stroke="none" stroke-width="0.5" stroke-linecap="butt"/><path d="M327.7025,193.74c-1.23481,0 -1.45312,-1.0165 -1.49171,-1.37592c-1.47204,-1.98306 -1.99228,-3.98316 -2.00829,-6.52408c0,0 0,-1.5 1.5,-1.5c1.5,0 1.5,1.5 1.5,1.5c-0.00311,0.39292 0.00847,0.76816 0.0392,1.1291c0.31531,0.27498 0.51454,0.67968 0.51454,1.1309c0,0.23579 -0.0544,0.45888 -0.15135,0.65739c0.25656,0.73791 0.65528,1.43168 1.24994,2.12234l0.34767,1.36028c0,0 0,1.5 -1.5,1.5z" fill="#ffffff" stroke="none" stroke-width="0.5" stroke-linecap="butt"/><path d="M211.1025,249.94c-1.5,0 -1.5,-1.5 -1.5,-1.5l0.04479,-0.56381c0.38218,-1.52875 1.10528,-3.1829 1.37928,-4.70383c1.02847,-5.70895 -1.5046,-11.8075 -3.34235,-17.04403c-0.72044,-2.05282 -0.98281,-3.82405 -2.08408,-5.74412c0,0 -0.74421,-1.30236 0.55816,-2.04657c1.30237,-0.74421 2.04657,0.55815 2.04657,0.55815c1.18573,2.08199 1.53207,4.04839 2.31592,6.25588c2.04506,5.75935 4.54663,12.28457 3.45764,18.55597c-0.27271,1.57049 -1.02678,3.32043 -1.42072,4.89617l0.04479,-0.1638c0,0 0,1.5 -1.5,1.5z" fill="#ffffff" stroke="none" stroke-width="0.5" stroke-linecap="butt"/><path d="M193.96316,207.50066c-1.06066,1.06066 -2.12132,0 -2.12132,0l-0.49167,-0.50039c-0.99698,-1.19888 -2.00906,-2.21096 -3.20794,-3.20794c0,0 -0.53212,-0.44343 -0.57184,-1.08922c-0.66861,-0.15113 -1.16789,-0.7488 -1.16789,-1.4631c0,-0.82843 0.67157,-1.5 1.5,-1.5c0.80157,0 1.45628,0.62872 1.4979,1.41992c0.39012,0.10086 0.66238,0.32774 0.66238,0.32774c1.33373,1.11358 2.47848,2.25833 3.59206,3.59206l0.30832,0.29962c0,0 1.06066,1.06066 0,2.12132z" fill="#ffffff" stroke="none" stroke-width="0.5" stroke-linecap="butt"/><path d="M224.97684,257.61698c1.42302,0.47434 0.94868,1.89736 0.94868,1.89736l-0.2443,0.71654c-0.73618,1.69356 -1.58853,2.72567 -1.97964,4.55001c-4.0634,7.19657 -8.23928,14.01972 -11.2,21.8c-0.7719,2.02843 -2.22946,3.72645 -2.99459,5.78579c0,0 -0.52669,1.40449 -1.93118,0.87781c-1.40449,-0.52668 -0.8778,-1.93118 -0.8778,-1.93118c0.77596,-2.05275 2.26116,-3.79407 3.00541,-5.81421c2.87452,-7.80234 7.05044,-14.67393 11.2,-21.8c0.426,-1.85638 1.29949,-2.93784 2.02036,-4.64998l0.15569,-0.48346c0,0 0.47435,-1.42302 1.89737,-0.94868z" fill="#ffffff" stroke="none" stroke-width="0.5" stroke-linecap="butt"/><path d="M242.5745,236.645c0.795,1.272 -0.477,2.06699 -0.477,2.06699l-1.70001,1.05729c-4.17834,1.77647 -5.8057,6.26006 -8.83433,9.33138c0,0 -1.06066,1.06066 -2.12132,0c-1.06066,-1.06066 0,-2.12132 0,-2.12132c3.36587,-3.30675 4.94206,-7.8722 9.56567,-9.86862l1.49999,-0.94272c0,0 1.272,-0.795 2.067,0.477z" fill="#ffffff" stroke="none" stroke-width="0.5" stroke-linecap="butt"/><path d="M262.2025,232.84c0,1.5 -1.5,1.5 -1.5,1.5l-1.21395,-0.01158c-1.01729,0.12531 -2.02831,0.31646 -3.02225,0.5668c0,0 -1.45521,0.36381 -1.81901,-1.09141c-0.36381,-1.45522 1.09141,-1.81902 1.09141,-1.81902c1.11176,-0.27609 2.24129,-0.48929 3.37775,-0.6332l1.58605,-0.01158c0,0 1.5,0 1.5,1.5z" fill="#ffffff" stroke="none" stroke-width="0.5" stroke-linecap="butt"/><path d="M329.07045,214.08808c-1.24808,-0.83205 -0.41602,-2.08013 -0.41602,-2.08013l1.12915,-1.68241c0.18007,-0.42548 0.36014,-0.85094 0.54021,-1.27642c0,0 0.59088,-1.37872 1.9696,-0.78784c1.37872,0.59088 0.78784,1.9696 0.78784,1.9696c-0.21993,0.50786 -0.43987,1.01572 -0.6598,1.52357l-1.27085,1.9176c0,0 -0.83205,1.24808 -2.08013,0.41602z" fill="#ffffff" stroke="none" stroke-width="0.5" stroke-linecap="butt"/><path d="M329.98742,226.62787c0.21213,1.48493 -1.27279,1.69706 -1.27279,1.69706l-0.39153,-0.41307c-0.56673,0.78414 -1.06645,1.62734 -1.44188,2.51902c0,0 -0.59088,1.37871 -1.9696,0.78784c-1.37872,-0.59088 -0.78783,-1.96959 -0.78783,-1.96959c0.47138,-1.08442 1.07528,-2.11563 1.75811,-3.08098l2.40847,-0.81306c0,0 1.48492,-0.21213 1.69705,1.27279z" fill="#ffffff" stroke="none" stroke-width="0.5" stroke-linecap="butt"/><path d="M145.5025,136.74c1.5,0 1.5,1.5 1.5,1.5l-0.19764,1.34421c-0.99504,1.69117 -2.0515,2.56597 -3.54208,3.80812c0,0 -1.15234,0.96028 -2.11261,-0.19205c-0.96027,-1.15233 0.19206,-2.11261 0.19206,-2.11261c1.2139,-1.01158 2.09713,-1.60406 2.85791,-2.99187l-0.19763,0.14421c0,0 0,-1.5 1.5,-1.5z" fill="#ffffff" stroke="none" stroke-width="0.5" stroke-linecap="butt"/><path d="M133.3025,159.54c1.5,0 1.5,1.5 1.5,1.5v0.4c-0.04325,0.81122 0.21178,1.69486 0.7206,2.32814c0,0 0.37314,0.52241 0.28945,1.12781c0.57606,0.6459 1.20777,1.24433 1.86614,1.80517l-0.17619,-0.36111c0,0 1.5,0 1.5,1.5c0,1.5 -1.5,1.5 -1.5,1.5l-1.77618,-0.36112c-0.92038,-0.79316 -1.79543,-1.64765 -2.57615,-2.57861c0,0 -0.51566,-0.61879 -0.33778,-1.32734c-0.62041,-1.09722 -0.97024,-2.38196 -1.00988,-3.63294v-0.4c0,0 0,-1.5 1.5,-1.5z" fill="#ffffff" stroke="none" stroke-width="0.5" stroke-linecap="butt"/><path d="M238.0025,111.44c0,1.5 -1.5,1.5 -1.5,1.5h-1c-2.58589,-0.00442 -4.61428,-0.50504 -6.99088,-1.52128c0,0 -1.37871,-0.59088 -0.78784,-1.9696c0.59088,-1.37872 1.96959,-0.78784 1.96959,-0.78784c2.00972,0.86342 3.62268,1.28292 5.80912,1.27872h1c0,0 1.5,0 1.5,1.5z" fill="#ffffff" stroke="none" stroke-width="0.5" stroke-linecap="butt"/><path d="M265.37449,129.445c0.795,1.272 -0.477,2.067 -0.477,2.067l-1.70001,1.05728c-4.14515,1.78553 -6.8819,1.94893 -8.1502,-2.96548c0,0 -0.3638,-1.45521 1.09141,-1.81902c1.45521,-0.3638 1.81902,1.09141 1.81902,1.09141c0.68648,2.86422 1.27907,2.12919 3.8498,1.03452l1.49999,-0.94272c0,0 1.272,-0.795 2.067,0.477z" fill="#ffffff" stroke="none" stroke-width="0.5" stroke-linecap="butt"/></g></g></svg>